<svg id="visual" viewBox="0 0 960 540" width="960" height="540" xmlns="http://www.w3.org/2000/svg" xmlns:xlink="http://www.w3.org/1999/xlink" version="1.1"><rect x="0" y="0" width="960" height="540" fill="#fff"></rect><defs><linearGradient id="grad1_0" x1="43.8%" y1="0%" x2="100%" y2="100%"><stop offset="14.444444444444446%" stop-color="#82c9f8" stop-opacity="1"></stop><stop offset="85.55555555555554%" stop-color="#82c9f8" stop-opacity="1"></stop></linearGradient></defs><defs><linearGradient id="grad1_1" x1="43.8%" y1="0%" x2="100%" y2="100%"><stop offset="14.444444444444446%" stop-color="#82c9f8" stop-opacity="1"></stop><stop offset="85.55555555555554%" stop-color="#97d1f9" stop-opacity="1"></stop></linearGradient></defs><defs><linearGradient id="grad1_2" x1="43.8%" y1="0%" x2="100%" y2="100%"><stop offset="14.444444444444446%" stop-color="#aad8fa" stop-opacity="1"></stop><stop offset="85.55555555555554%" stop-color="#97d1f9" stop-opacity="1"></stop></linearGradient></defs><defs><linearGradient id="grad1_3" x1="43.8%" y1="0%" x2="100%" y2="100%"><stop offset="14.444444444444446%" stop-color="#aad8fa" stop-opacity="1"></stop><stop offset="85.55555555555554%" stop-color="#bce0fb" stop-opacity="1"></stop></linearGradient></defs><defs><linearGradient id="grad1_4" x1="43.8%" y1="0%" x2="100%" y2="100%"><stop offset="14.444444444444446%" stop-color="#cee8fc" stop-opacity="1"></stop><stop offset="85.55555555555554%" stop-color="#bce0fb" stop-opacity="1"></stop></linearGradient></defs><defs><linearGradient id="grad1_5" x1="43.8%" y1="0%" x2="100%" y2="100%"><stop offset="14.444444444444446%" stop-color="#cee8fc" stop-opacity="1"></stop><stop offset="85.55555555555554%" stop-color="#dfeffd" stop-opacity="1"></stop></linearGradient></defs><defs><linearGradient id="grad1_6" x1="43.8%" y1="0%" x2="100%" y2="100%"><stop offset="14.444444444444446%" stop-color="#eff7fe" stop-opacity="1"></stop><stop offset="85.55555555555554%" stop-color="#dfeffd" stop-opacity="1"></stop></linearGradient></defs><defs><linearGradient id="grad1_7" x1="43.8%" y1="0%" x2="100%" y2="100%"><stop offset="14.444444444444446%" stop-color="#eff7fe" stop-opacity="1"></stop><stop offset="85.55555555555554%" stop-color="#ffffff" stop-opacity="1"></stop></linearGradient></defs><defs><linearGradient id="grad2_0" x1="0%" y1="0%" x2="56.3%" y2="100%"><stop offset="14.444444444444446%" stop-color="#82c9f8" stop-opacity="1"></stop><stop offset="85.55555555555554%" stop-color="#82c9f8" stop-opacity="1"></stop></linearGradient></defs><defs><linearGradient id="grad2_1" x1="0%" y1="0%" x2="56.3%" y2="100%"><stop offset="14.444444444444446%" stop-color="#97d1f9" stop-opacity="1"></stop><stop offset="85.55555555555554%" stop-color="#82c9f8" stop-opacity="1"></stop></linearGradient></defs><defs><linearGradient id="grad2_2" x1="0%" y1="0%" x2="56.3%" y2="100%"><stop offset="14.444444444444446%" stop-color="#97d1f9" stop-opacity="1"></stop><stop offset="85.55555555555554%" stop-color="#aad8fa" stop-opacity="1"></stop></linearGradient></defs><defs><linearGradient id="grad2_3" x1="0%" y1="0%" x2="56.3%" y2="100%"><stop offset="14.444444444444446%" stop-color="#bce0fb" stop-opacity="1"></stop><stop offset="85.55555555555554%" stop-color="#aad8fa" stop-opacity="1"></stop></linearGradient></defs><defs><linearGradient id="grad2_4" x1="0%" y1="0%" x2="56.3%" y2="100%"><stop offset="14.444444444444446%" stop-color="#bce0fb" stop-opacity="1"></stop><stop offset="85.55555555555554%" stop-color="#cee8fc" stop-opacity="1"></stop></linearGradient></defs><defs><linearGradient id="grad2_5" x1="0%" y1="0%" x2="56.3%" y2="100%"><stop offset="14.444444444444446%" stop-color="#dfeffd" stop-opacity="1"></stop><stop offset="85.55555555555554%" stop-color="#cee8fc" stop-opacity="1"></stop></linearGradient></defs><defs><linearGradient id="grad2_6" x1="0%" y1="0%" x2="56.3%" y2="100%"><stop offset="14.444444444444446%" stop-color="#dfeffd" stop-opacity="1"></stop><stop offset="85.55555555555554%" stop-color="#eff7fe" stop-opacity="1"></stop></linearGradient></defs><defs><linearGradient id="grad2_7" x1="0%" y1="0%" x2="56.3%" y2="100%"><stop offset="14.444444444444446%" stop-color="#ffffff" stop-opacity="1"></stop><stop offset="85.55555555555554%" stop-color="#eff7fe" stop-opacity="1"></stop></linearGradient></defs><g transform="translate(960, 0)"><path d="M0 459C-50.2 431.2 -100.4 403.4 -160 386.2C-219.5 369 -288.3 362.5 -324.6 324.6C-360.8 286.7 -364.6 217.4 -381.6 158C-398.5 98.7 -428.8 49.4 -459 0L0 0Z" fill="#f7fbff"></path><path d="M0 401.6C-43.9 377.3 -87.9 352.9 -140 337.9C-192 322.9 -252.3 317.2 -284 284C-315.7 250.8 -319 190.2 -333.9 138.3C-348.7 86.4 -375.2 43.2 -401.6 0L0 0Z" fill="#e7f3fe"></path><path d="M0 344.3C-37.7 323.4 -75.3 302.5 -120 289.6C-164.6 276.8 -216.2 271.9 -243.4 243.4C-270.6 215 -273.4 163 -286.2 118.5C-298.9 74 -321.6 37 -344.2 0L0 0Z" fill="#d6ebfd"></path><path d="M0 286.9C-31.4 269.5 -62.8 252.1 -100 241.4C-137.2 230.6 -180.2 226.5 -202.9 202.9C-225.5 179.2 -227.9 135.9 -238.5 98.8C-249.1 61.7 -268 30.9 -286.9 0L0 0Z" fill="#c5e4fc"></path><path d="M0 229.5C-25.1 215.6 -50.2 201.7 -80 193.1C-109.7 184.5 -144.1 181.2 -162.3 162.3C-180.4 143.3 -182.3 108.7 -190.8 79C-199.3 49.4 -214.4 24.7 -229.5 0L0 0Z" fill="#b3dcfb"></path><path d="M0 172.1C-18.8 161.7 -37.7 151.3 -60 144.8C-82.3 138.4 -108.1 135.9 -121.7 121.7C-135.3 107.5 -136.7 81.5 -143.1 59.3C-149.5 37 -160.8 18.5 -172.1 0L0 0Z" fill="#a1d4fa"></path><path d="M0 114.8C-12.6 107.8 -25.1 100.8 -40 96.5C-54.9 92.3 -72.1 90.6 -81.1 81.1C-90.2 71.7 -91.1 54.3 -95.4 39.5C-99.6 24.7 -107.2 12.3 -114.7 0L0 0Z" fill="#8dcdf9"></path><path d="M0 57.4C-6.3 53.9 -12.6 50.4 -20 48.3C-27.4 46.1 -36 45.3 -40.6 40.6C-45.1 35.8 -45.6 27.2 -47.7 19.8C-49.8 12.3 -53.6 6.2 -57.4 0L0 0Z" fill="#82c9f8"></path></g><g transform="translate(0, 540)"><path d="M0 -459C53.9 -424.7 107.7 -390.3 147.7 -356.6C187.7 -322.9 213.8 -289.9 263.8 -263.8C313.7 -237.6 387.5 -218.5 424.1 -175.7C460.6 -132.8 459.8 -66.4 459 0L0 0Z" fill="#f7fbff"></path><path d="M0 -401.6C47.1 -371.6 94.3 -341.5 129.3 -312C164.2 -282.6 187.1 -253.6 230.8 -230.8C274.5 -207.9 339.1 -191.1 371.1 -153.7C403 -116.2 402.3 -58.1 401.6 0L0 0Z" fill="#e7f3fe"></path><path d="M0 -344.2C40.4 -318.5 80.8 -292.7 110.8 -267.5C140.8 -242.2 160.3 -217.4 197.8 -197.8C235.3 -178.2 290.7 -163.8 318 -131.7C345.4 -99.6 344.8 -49.8 344.3 0L0 0Z" fill="#d6ebfd"></path><path d="M0 -286.9C33.7 -265.4 67.3 -243.9 92.3 -222.9C117.3 -201.8 133.6 -181.2 164.8 -164.8C196.1 -148.5 242.2 -136.5 265 -109.8C287.9 -83 287.4 -41.5 286.9 0L0 0Z" fill="#c5e4fc"></path><path d="M0 -229.5C26.9 -212.3 53.9 -195.2 73.9 -178.3C93.8 -161.5 106.9 -144.9 131.9 -131.9C156.9 -118.8 193.8 -109.2 212 -87.8C230.3 -66.4 229.9 -33.2 229.5 0L0 0Z" fill="#b3dcfb"></path><path d="M0 -172.1C20.2 -159.2 40.4 -146.4 55.4 -133.7C70.4 -121.1 80.2 -108.7 98.9 -98.9C117.6 -89.1 145.3 -81.9 159 -65.9C172.7 -49.8 172.4 -24.9 172.1 0L0 0Z" fill="#a1d4fa"></path><path d="M0 -114.7C13.5 -106.2 26.9 -97.6 36.9 -89.2C46.9 -80.7 53.4 -72.5 65.9 -65.9C78.4 -59.4 96.9 -54.6 106 -43.9C115.1 -33.2 114.9 -16.6 114.8 0L0 0Z" fill="#8dcdf9"></path><path d="M0 -57.4C6.7 -53.1 13.5 -48.8 18.5 -44.6C23.5 -40.4 26.7 -36.2 33 -33C39.2 -29.7 48.4 -27.3 53 -22C57.6 -16.6 57.5 -8.3 57.4 0L0 0Z" fill="#82c9f8"></path></g></svg>