<svg id="visual" viewBox="0 0 900 600" width="900" height="600" xmlns="http://www.w3.org/2000/svg" xmlns:xlink="http://www.w3.org/1999/xlink" version="1.1"><path d="M0 433L21.5 421.7C43 410.3 86 387.7 128.8 376C171.7 364.3 214.3 363.7 257.2 369.7C300 375.7 343 388.3 385.8 397.5C428.7 406.7 471.3 412.3 514.2 403.8C557 395.3 600 372.7 642.8 374.7C685.7 376.7 728.3 403.3 771.2 409.2C814 415 857 400 878.5 392.5L900 385L900 601L878.5 601C857 601 814 601 771.2 601C728.3 601 685.7 601 642.8 601C600 601 557 601 514.2 601C471.3 601 428.7 601 385.8 601C343 601 300 601 257.2 601C214.3 601 171.7 601 128.8 601C86 601 43 601 21.5 601L0 601Z" fill="#1a91e0"></path><path d="M0 408L21.5 416.8C43 425.7 86 443.3 128.8 454.7C171.7 466 214.3 471 257.2 470C300 469 343 462 385.8 455.5C428.7 449 471.3 443 514.2 433.7C557 424.3 600 411.7 642.8 407.7C685.7 403.7 728.3 408.3 771.2 420.7C814 433 857 453 878.5 463L900 473L900 601L878.5 601C857 601 814 601 771.2 601C728.3 601 685.7 601 642.8 601C600 601 557 601 514.2 601C471.3 601 428.7 601 385.8 601C343 601 300 601 257.2 601C214.3 601 171.7 601 128.8 601C86 601 43 601 21.5 601L0 601Z" fill="#1780c2"></path><path d="M0 497L21.5 487.2C43 477.3 86 457.7 128.8 456.8C171.7 456 214.3 474 257.2 483.8C300 493.7 343 495.3 385.8 494.3C428.7 493.3 471.3 489.7 514.2 491.3C557 493 600 500 642.8 492C685.7 484 728.3 461 771.2 461C814 461 857 484 878.5 495.5L900 507L900 601L878.5 601C857 601 814 601 771.2 601C728.3 601 685.7 601 642.8 601C600 601 557 601 514.2 601C471.3 601 428.7 601 385.8 601C343 601 300 601 257.2 601C214.3 601 171.7 601 128.8 601C86 601 43 601 21.5 601L0 601Z" fill="#186fa5"></path><path d="M0 500L21.5 505.2C43 510.3 86 520.7 128.8 525.8C171.7 531 214.3 531 257.2 523.7C300 516.3 343 501.7 385.8 495.3C428.7 489 471.3 491 514.2 490.8C557 490.7 600 488.3 642.8 496.2C685.7 504 728.3 522 771.2 530.2C814 538.3 857 536.7 878.5 535.8L900 535L900 601L878.5 601C857 601 814 601 771.2 601C728.3 601 685.7 601 642.8 601C600 601 557 601 514.2 601C471.3 601 428.7 601 385.8 601C343 601 300 601 257.2 601C214.3 601 171.7 601 128.8 601C86 601 43 601 21.5 601L0 601Z" fill="#1a5e88"></path><path d="M0 571L21.5 570.5C43 570 86 569 128.8 567.3C171.7 565.7 214.3 563.3 257.2 560.7C300 558 343 555 385.8 553.2C428.7 551.3 471.3 550.7 514.2 549C557 547.3 600 544.7 642.8 543.8C685.7 543 728.3 544 771.2 541.3C814 538.7 857 532.3 878.5 529.2L900 526L900 601L878.5 601C857 601 814 601 771.2 601C728.3 601 685.7 601 642.8 601C600 601 557 601 514.2 601C471.3 601 428.7 601 385.8 601C343 601 300 601 257.2 601C214.3 601 171.7 601 128.8 601C86 601 43 601 21.5 601L0 601Z" fill="#1c4d6d"></path></svg>